<?xml version="1.0" standalone="yes"?>

<svg version="1.1" viewBox="0.0 0.0 644.4619422572179 644.4619422572179" fill="none" stroke="none" stroke-linecap="square" stroke-miterlimit="10" xmlns="http://www.w3.org/2000/svg" xmlns:xlink="http://www.w3.org/1999/xlink"><clipPath id="p.0"><path d="m0 0l644.4619 0l0 644.4619l-644.4619 0l0 -644.4619z" clip-rule="nonzero"></path></clipPath><g clip-path="url(#p.0)"><path fill="#000000" fill-opacity="0.0" d="m0 0l644.4619 0l0 644.4619l-644.4619 0z" fill-rule="nonzero"></path><path fill="#acd760" d="m31.47244 327.47244l0 0c0 -163.47629 132.52371 -296.0 296.0 -296.0l0 0c78.50409 0 153.79285 31.185625 209.30362 86.69639c55.510742 55.510765 86.69635 130.79953 86.69635 209.30362l0 0c0 163.47629 -132.52368 295.99997 -295.99997 295.99997l0 0c-163.47629 0 -296.0 -132.52368 -296.0 -295.99997z" fill-rule="nonzero"></path><path stroke="#61a82c" stroke-width="8.0" stroke-linejoin="round" stroke-linecap="butt" d="m31.47244 327.47244l0 0c0 -163.47629 132.52371 -296.0 296.0 -296.0l0 0c78.50409 0 153.79285 31.185625 209.30362 86.69639c55.510742 55.510765 86.69635 130.79953 86.69635 209.30362l0 0c0 163.47629 -132.52368 295.99997 -295.99997 295.99997l0 0c-163.47629 0 -296.0 -132.52368 -296.0 -295.99997z" fill-rule="nonzero"></path></g></svg>

