<?xml version="1.0" standalone="yes"?>

<svg version="1.1" viewBox="0.0 0.0 644.4619422572179 644.4619422572179" fill="none" stroke="none" stroke-linecap="square" stroke-miterlimit="10" xmlns="http://www.w3.org/2000/svg" xmlns:xlink="http://www.w3.org/1999/xlink"><clipPath id="p.0"><path d="m0 0l644.4619 0l0 644.4619l-644.4619 0l0 -644.4619z" clip-rule="nonzero"></path></clipPath><g clip-path="url(#p.0)"><path fill="#000000" fill-opacity="0.0" d="m0 0l644.4619 0l0 644.4619l-644.4619 0z" fill-rule="nonzero"></path><path fill="#cfe2f3" d="m274.82272 294.20877l34.60916 0l0 -34.60913l32.579803 0l0 34.60913l34.60916 0l0 32.579834l-34.60916 0l0 34.60913l-32.579803 0l0 -34.60913l-34.60916 0z" fill-rule="nonzero"></path><path stroke="#000000" stroke-width="8.0" stroke-linejoin="round" stroke-linecap="butt" d="m274.82272 294.20877l34.60916 0l0 -34.60913l32.579803 0l0 34.60913l34.60916 0l0 32.579834l-34.60916 0l0 34.60913l-32.579803 0l0 -34.60913l-34.60916 0z" fill-rule="nonzero"></path><path fill="#efefef" d="m9.611548 320.83203l316.11023 -316.11026l316.11026 316.11026l-316.11026 316.11023z" fill-rule="nonzero"></path><path stroke="#000000" stroke-width="8.0" stroke-linejoin="round" stroke-linecap="butt" d="m9.611548 320.83203l316.11023 -316.11026l316.11026 316.11026l-316.11026 316.11023z" fill-rule="nonzero"></path><path fill="#000000" d="m195.37251 279.1146l88.63182 0l0 -88.631836l83.434906 0l0 88.631836l88.631805 0l0 83.434875l-88.631805 0l0 88.631836l-83.434906 0l0 -88.631836l-88.63182 0z" fill-rule="nonzero"></path><path stroke="#000000" stroke-width="1.0" stroke-linejoin="round" stroke-linecap="butt" d="m195.37251 279.1146l88.63182 0l0 -88.631836l83.434906 0l0 88.631836l88.631805 0l0 83.434875l-88.631805 0l0 88.631836l-83.434906 0l0 -88.631836l-88.63182 0z" fill-rule="nonzero"></path></g></svg>

