<?xml version="1.0" standalone="yes"?>

<svg version="1.1" viewBox="0.0 0.0 644.4619422572179 644.4619422572179" fill="none" stroke="none" stroke-linecap="square" stroke-miterlimit="10" xmlns="http://www.w3.org/2000/svg" xmlns:xlink="http://www.w3.org/1999/xlink"><clipPath id="p.0"><path d="m0 0l644.4619 0l0 644.4619l-644.4619 0l0 -644.4619z" clip-rule="nonzero"></path></clipPath><g clip-path="url(#p.0)"><path fill="#000000" fill-opacity="0.0" d="m0 0l644.4619 0l0 644.4619l-644.4619 0z" fill-rule="nonzero"></path><path fill="#efefef" d="m9.611548 320.83203l316.11023 -316.11026l316.11026 316.11026l-316.11026 316.11023z" fill-rule="nonzero"></path><path stroke="#000000" stroke-width="8.0" stroke-linejoin="round" stroke-linecap="butt" d="m9.611548 320.83203l316.11023 -316.11026l316.11026 316.11026l-316.11026 316.11023z" fill-rule="nonzero"></path><path fill="#000000" fill-opacity="0.0" d="m174.84514 322.23096l0 0c0 -81.398926 65.98689 -147.38582 147.38582 -147.38582l0 0c39.089172 0 76.57733 15.528107 104.21753 43.16832c27.640198 27.640198 43.168304 65.12836 43.168304 104.2175l0 0c0 81.39896 -65.98688 147.38583 -147.38583 147.38583l0 0c-81.398926 0 -147.38582 -65.98688 -147.38582 -147.38583z" fill-rule="nonzero"></path><path stroke="#000000" stroke-width="8.0" stroke-linejoin="round" stroke-linecap="butt" d="m174.84514 322.23096l0 0c0 -81.398926 65.98689 -147.38582 147.38582 -147.38582l0 0c39.089172 0 76.57733 15.528107 104.21753 43.16832c27.640198 27.640198 43.168304 65.12836 43.168304 104.2175l0 0c0 81.39896 -65.98688 147.38583 -147.38583 147.38583l0 0c-81.398926 0 -147.38582 -65.98688 -147.38582 -147.38583z" fill-rule="nonzero"></path></g></svg>

